# xmcd
#
# Track frame offsets:
#	150
#	18430
#	32812
#	46592
#	61325
#	77032
#	91637
#	104677
#	118467
#	131397
#	143232
#
# Disc length: 2070 seconds
#
# Revision: 1
# Processed by: cddbd v1.5.2PL0 Copyright (c) Steve Scherf et al.
# Submitted via: audiograbber 1.83.01
#
DISCID=8d08140b
DTITLE=Maureen McCormick - When You Get A Little Lonely
DYEAR=1995
DGENRE=Country
TTITLE0=When You Get A Little Lonely
TTITLE1=I'd Have To Call It Love
TTITLE2=Tell Mama
TTITLE3=Some Somebody
TTITLE4=We Must Have Done Something Right (Duet with Wayland Patton)
TTITLE5=Cloud Of Dust
TTITLE6=Go West
TTITLE7=Oh, Boy!
TTITLE8=Might As Well Be Me
TTITLE9=I Do But I Don't
TTITLE10=I Can't Say
EXTD=Maureen McCormick played Marcia Brady on The Brady Bunch.\n\nCD Copyright 
EXTD=© 1995 Phantom Hill Records.
EXTT0=
EXTT1=
EXTT2=
EXTT3=
EXTT4=
EXTT5=
EXTT6=
EXTT7=
EXTT8=
EXTT9=
EXTT10=
PLAYORDER=
